Coordinates
version=1
nRows=11
nColumns=46
inDegrees=yes

Units are S.I. units (second, meters, Newtons, ...)
Angles are in degrees.

endheader
time	pelvis_tilt	pelvis_list	pelvis_rotation	pelvis_tx	pelvis_ty	pelvis_tz	bb_angle	bb_tx	bb_ty	bb_tz	hip_flexion_r	hip_adduction_r	hip_rotation_r	knee_angle_r	knee_angle_r_beta	ankle_angle_r	subtalar_angle_r	mtp_angle_r	crank_angle_r	hip_flexion_l	hip_adduction_l	hip_rotation_l	knee_angle_l	knee_angle_l_beta	ankle_angle_l	subtalar_angle_l	mtp_angle_l	crank_angle_l	lumbar_extension	lumbar_bending	lumbar_rotation	arm_flex_r	arm_add_r	arm_rot_r	elbow_flex_r	pro_sup_r	wrist_flex_r	wrist_dev_r	arm_flex_l	arm_add_l	arm_rot_l	elbow_flex_l	pro_sup_l	wrist_flex_l	wrist_dev_l
      2.50000000	    -11.04750276	     -5.18648890	      4.87662981	      0.30563569	      1.18756350	     -0.24472087	      0.00000000	      0.50000000	      0.00000000	      0.25000000	     60.09593669	      1.39407959	      2.25927051	    109.39018638	      1.90921892	      4.54927329	     -7.70647061	      0.00000000	      0.00000000	     15.79060156	     -9.53102112	     -6.62012561	     21.84989960	      0.38135269	     -0.74346800	     10.44375094	      0.00000000	      0.00000000	    -53.76279706	     13.28886006	     -2.18779983	     54.51899990	     -0.97215669	     25.86032856	     48.71061788	     47.76084940	      0.00000000	      0.00000000	     46.10747761	    -25.26327870	     25.75219558	     60.48657109	     51.78685890	      0.00000000	      0.00000000
      2.50500000	    -11.48893123	     -5.40553972	      4.45535793	      0.30502704	      1.19025458	     -0.24480282	      0.00000000	      0.50000000	      0.00000000	      0.25000000	     60.85827289	      1.93620186	      2.35802502	    108.99131757	      1.90225735	      5.40429391	     -8.00504937	      0.00000000	      0.00000000	     15.55142944	     -9.74184733	     -6.93398127	     21.02109757	      0.36688737	     -2.29158078	     10.42209585	      0.00000000	      0.00000000	    -53.91215323	     13.64728029	     -1.66397734	     54.95677051	     -0.82450102	     25.86961830	     48.85084342	     47.78555852	      0.00000000	      0.00000000	     46.26700456	    -25.30990545	     25.67864648	     60.39292022	     51.77118972	      0.00000000	      0.00000000
      2.51000000	    -11.77111261	     -5.50623545	      3.77555101	      0.30466606	      1.19347344	     -0.24452479	      0.00000000	      0.50000000	      0.00000000	      0.25000000	     61.37365314	      2.67646830	      2.67217705	    108.48687110	      1.89345310	      6.16648579	     -8.33217248	      0.00000000	      0.00000000	     14.97967193	     -9.89378627	     -7.68611228	     19.98229279	      0.34875680	     -4.28576149	      9.96268673	      0.00000000	      0.00000000	    -54.26458450	     13.69821194	     -0.91820270	     55.22499736	     -0.81348341	     25.92792765	     48.84200543	     47.80046844	      0.00000000	      0.00000000	     46.38574816	    -25.09037863	     25.45837869	     60.06988545	     51.70946654	      0.00000000	      0.00000000
      2.51500000	    -12.14835385	     -5.64452081	      3.16798617	      0.30411644	      1.19654460	     -0.24424009	      0.00000000	      0.50000000	      0.00000000	      0.25000000	     61.94819305	      3.36681953	      2.85681104	    107.90078205	      1.88322391	      7.01870752	     -8.76261297	      0.00000000	      0.00000000	     14.62143042	    -10.05068139	     -8.18376312	     19.13277961	      0.33393000	     -5.92567585	      9.66707232	      0.00000000	      0.00000000	    -54.54402565	     13.78800277	     -0.29465278	     55.68250384	     -0.73400245	     25.99630490	     48.91454741	     47.82440764	      0.00000000	      0.00000000	     46.63841011	    -24.92319027	     25.19265049	     59.74658362	     51.63504767	      0.00000000	      0.00000000
      2.52000000	    -12.60635496	     -5.78462543	      2.51247348	      0.30355936	      1.19955811	     -0.24391267	      0.00000000	      0.50000000	      0.00000000	      0.25000000	     62.59067125	      4.02852693	      3.03810476	    107.24665678	      1.87180727	      7.79527675	     -9.08874421	      0.00000000	      0.00000000	     14.39188130	    -10.21690232	     -8.63444970	     18.38759952	      0.32092415	     -7.51504260	      9.32230978	      0.00000000	      0.00000000	    -54.76692873	     13.84251561	      0.34091923	     56.15641537	     -0.62624632	     26.09534835	     48.99364192	     47.85161382	      0.00000000	      0.00000000	     46.86309886	    -24.75442458	     24.90482151	     59.41154599	     51.55410571	      0.00000000	      0.00000000
      2.52500000	    -12.88678040	     -5.77283231	      1.74463171	      0.30307395	      1.20296759	     -0.24351391	      0.00000000	      0.50000000	      0.00000000	      0.25000000	     62.94472763	      4.71394829	      3.38093290	    106.48236736	      1.85846791	      8.50902529	     -9.52078178	      0.00000000	      0.00000000	     13.87064406	    -10.21147760	     -9.14672391	     17.52932794	      0.30594449	     -9.24179756	      8.51882543	      0.00000000	      0.00000000	    -55.09518603	     13.63188175	      1.32616415	     56.53097323	     -1.18426003	     26.55504088	     49.18375187	     48.01611955	      0.00000000	      0.00000000	     47.52721036	    -23.39401217	     23.95604686	     57.81068218	     51.31033779	      0.00000000	      0.00000000
      2.53000000	    -13.34975782	     -5.87066507	      1.18573277	      0.30239475	      1.20572013	     -0.24308300	      0.00000000	      0.50000000	      0.00000000	      0.25000000	     63.60743765	      5.16861621	      3.50492472	    105.74557133	      1.84560839	      9.13061181	     -9.66064310	      0.00000000	      0.00000000	     13.82201797	    -10.35372842	     -9.39299640	     17.12814253	      0.29894248	    -10.39378243	      8.32847703	      0.00000000	      0.00000000	    -55.31287702	     13.68352208	      1.74723139	     56.99872409	     -0.94328411	     26.60483721	     49.38196987	     48.05423696	      0.00000000	      0.00000000	     47.71985580	    -23.49626394	     23.84619566	     57.71365847	     51.29026746	      0.00000000	      0.00000000
      2.53500000	    -13.87656821	     -5.97429266	      0.42273926	      0.30161383	      1.20850041	     -0.24231262	      0.00000000	      0.50000000	      0.00000000	      0.25000000	     64.18625654	      5.85970888	      3.68317000	    104.86223432	      1.83019125	      9.91400039	     -9.82538298	      0.00000000	      0.00000000	     13.82195297	    -10.54814290	     -9.66815165	     16.81116489	      0.29341018	    -11.51428144	      7.86305317	      0.00000000	      0.00000000	    -55.50453389	     13.57012434	      2.25457565	     57.47669878	     -0.69146589	     26.68667765	     49.58942985	     48.09742628	      0.00000000	      0.00000000	     47.92085234	    -23.59963818	     23.65712658	     57.58894074	     51.25501447	      0.00000000	      0.00000000
      2.54000000	    -14.39132873	     -6.03814795	     -0.32472352	      0.30067546	      1.21127569	     -0.24140353	      0.00000000	      0.50000000	      0.00000000	      0.25000000	     64.70795620	      6.55408576	      3.95237799	    103.92055495	      1.81375584	     10.59300543	     -9.88251451	      0.00000000	      0.00000000	     13.87776682	    -10.70632618	     -9.83413900	     16.64416357	      0.29049546	    -12.41373159	      7.31303946	      0.00000000	      0.00000000	    -55.71227330	     13.38631938	      2.71059375	     57.92677063	     -0.44984686	     26.77667841	     49.81330760	     48.14461024	      0.00000000	      0.00000000	     48.11196134	    -23.67652711	     23.41715485	     57.45137692	     51.21144429	      0.00000000	      0.00000000
      2.54500000	    -14.94164597	     -6.06951358	     -1.07037687	      0.29979730	      1.21382969	     -0.24077132	      0.00000000	      0.50000000	      0.00000000	      0.25000000	     65.09704146	      7.06650421	      3.98161913	    102.85067536	      1.79508292	     11.79249607	    -10.30475302	      0.00000000	      0.00000000	     13.98232863	    -10.79216392	     -9.94670854	     16.46086531	      0.28729630	    -13.25355166	      7.61826327	      0.00000000	      0.00000000	    -55.82224682	     13.19940556	      3.12901229	     58.29781360	     -0.28968128	     26.90891804	     50.08622604	     48.20854510	      0.00000000	      0.00000000	     48.22745639	    -23.67167944	     23.07771276	     57.30698521	     51.16076239	      0.00000000	      0.00000000
      2.55000000	    -15.52207217	     -6.22559408	     -1.88728097	      0.29880459	      1.21624544	     -0.23978177	      0.00000000	      0.50000000	      0.00000000	      0.25000000	     65.53703297	      7.71304254	      4.00619903	    101.70892005	      1.77515553	     12.71610348	    -10.31171256	      0.00000000	      0.00000000	     14.22482698	    -11.10310181	    -10.07394848	     16.56129068	      0.28904905	    -13.45523394	      7.62916244	      0.00000000	      0.00000000	    -55.98795121	     12.98807566	      3.65951485	     58.72317014	     -0.11860593	     27.08559916	     50.50786670	     48.30410075	      0.00000000	      0.00000000	     48.34084550	    -23.67915865	     22.59828421	     57.18185453	     51.10261561	      0.00000000	      0.00000000
